<svg xmlns="http://www.w3.org/2000/svg" viewBox="0 0 50 50" width="50" height="50">
	<style>
		tspan { white-space:pre }
		.shp0 { fill: #1b1f23 } 
	</style>
	<path id="Layer" fill-rule="evenodd" class="shp0" d="M25 0C11.19 0 0 11.19 0 25C0 36.06 7.16 45.41 17.09 48.72C18.34 48.94 18.81 48.19 18.81 47.53C18.81 46.94 18.78 44.97 18.78 42.87C12.5 44.03 10.87 41.34 10.37 39.94C10.09 39.22 8.87 37 7.81 36.41C6.94 35.94 5.69 34.78 7.78 34.75C9.75 34.72 11.16 36.56 11.62 37.31C13.87 41.09 17.47 40.03 18.91 39.37C19.12 37.75 19.78 36.66 20.5 36.03C14.94 35.41 9.12 33.25 9.12 23.69C9.12 20.97 10.09 18.72 11.69 16.97C11.44 16.34 10.56 13.78 11.94 10.34C11.94 10.34 14.03 9.69 18.81 12.91C20.81 12.34 22.94 12.06 25.06 12.06C27.19 12.06 29.31 12.34 31.31 12.91C36.09 9.66 38.19 10.34 38.19 10.34C39.56 13.78 38.69 16.34 38.44 16.97C40.03 18.72 41 20.94 41 23.69C41 33.28 35.16 35.41 29.59 36.03C30.5 36.81 31.28 38.31 31.28 40.66C31.28 44 31.25 46.69 31.25 47.53C31.25 48.19 31.72 48.97 32.97 48.72C42.84 45.41 50 36.03 50 25C50 11.19 38.81 0 25 0Z" />
</svg>