<svg xmlns="http://www.w3.org/2000/svg" viewBox="0 0 42 50" width="42" height="50">
	<style>
		tspan { white-space:pre }
		.shp0 { fill: #7e57c2 } 
		.shp1 { fill: #ffffff } 
	</style>
	<g id="surface1">
		<path id="Layer" class="shp0" d="M0.95 45.05L0.95 4.95C0.95 2.34 3.06 0.23 5.67 0.23L36.33 0.23C38.94 0.23 41.05 2.34 41.05 4.94L41.05 45.05C41.05 47.66 38.94 49.77 36.33 49.77L5.67 49.77C3.06 49.77 0.95 47.66 0.95 45.05Z" />
		<path id="Layer" fill-rule="evenodd" class="shp1" d="M26.06 42.95L26.06 23.28C26.06 23.28 27.34 18.57 10.3 25.21C10.27 25.29 10.27 7.01 10.27 7.01L15.84 6.98L15.84 18.69C15.84 18.69 31.43 12.55 31.43 23.35L31.43 42.95L26.06 42.95ZM23.33 14.07C25.45 11.47 27.38 7.01 27.38 7.01L33.49 7.01C33.49 7.01 32.44 9.92 29.23 14.07L23.33 14.07ZM10.37 42.92L10.37 31.72L15.97 37.32L10.37 42.92Z" />
	</g>
</svg>