<svg xmlns="http://www.w3.org/2000/svg" viewBox="0 0 20 20" width="20" height="20">
	<style>
		tspan { white-space:pre }
		.shp0 { fill: #000000 } 
	</style>
	<path id="Layer copy" class="shp0" d="M16.88 12.5L15.63 12.5C15.54 12.5 15.46 12.52 15.39 12.55C15.31 12.58 15.24 12.63 15.18 12.68C15.13 12.74 15.08 12.81 15.05 12.89C15.02 12.96 15 13.04 15 13.13L15 17.5L2.5 17.5L2.5 5L8.13 5C8.21 5 8.29 4.98 8.36 4.95C8.44 4.92 8.51 4.87 8.57 4.82C8.62 4.76 8.67 4.69 8.7 4.61C8.73 4.54 8.75 4.46 8.75 4.38L8.75 3.13C8.75 3.04 8.73 2.96 8.7 2.89C8.67 2.81 8.62 2.74 8.57 2.68C8.51 2.63 8.44 2.58 8.36 2.55C8.29 2.52 8.21 2.5 8.13 2.5L1.88 2.5C1.63 2.5 1.38 2.55 1.16 2.64C0.93 2.74 0.72 2.88 0.55 3.05C0.38 3.22 0.24 3.43 0.14 3.66C0.05 3.88 0 4.13 0 4.38L0 18.13C0 18.37 0.05 18.62 0.14 18.84C0.24 19.07 0.38 19.28 0.55 19.45C0.72 19.62 0.93 19.76 1.16 19.86C1.38 19.95 1.63 20 1.88 20L15.63 20C15.87 20 16.12 19.95 16.34 19.86C16.57 19.76 16.78 19.62 16.95 19.45C17.12 19.28 17.26 19.07 17.36 18.84C17.45 18.62 17.5 18.37 17.5 18.13L17.5 13.13C17.5 13.04 17.48 12.96 17.45 12.89C17.42 12.81 17.37 12.74 17.32 12.68C17.26 12.63 17.19 12.58 17.11 12.55C17.04 12.52 16.96 12.5 16.88 12.5ZM19.06 0L14.06 0C13.23 0 12.81 1.01 13.4 1.6L14.79 3L5.27 12.51C5.19 12.6 5.12 12.71 5.07 12.82C5.02 12.93 5 13.06 5 13.18C5 13.3 5.02 13.42 5.07 13.54C5.12 13.65 5.19 13.76 5.27 13.84L6.16 14.73C6.25 14.81 6.35 14.88 6.46 14.93C6.58 14.98 6.7 15 6.82 15C6.95 15 7.07 14.98 7.18 14.93C7.3 14.88 7.4 14.81 7.49 14.73L17 5.21L18.4 6.6C18.98 7.19 20 6.78 20 5.94L20 0.94C20 0.81 19.98 0.69 19.93 0.58C19.88 0.46 19.81 0.36 19.73 0.27C19.64 0.19 19.54 0.12 19.42 0.07C19.31 0.02 19.19 0 19.06 0L19.06 0Z" />
</svg>