<svg xmlns="http://www.w3.org/2000/svg" viewBox="0 0 20 20" width="20" height="20">
	<style>
		tspan { white-space:pre }
		.shp0 { fill: #006699 } 
		.shp1 { fill: #ffffff } 
	</style>
	<g id="Layer">
		<path id="Layer" class="shp0" d="M0 1.43C0 0.64 0.66 0 1.48 0L18.52 0C19.34 0 20 0.64 20 1.43L20 18.57C20 19.36 19.34 20 18.52 20L1.48 20C0.66 20 0 19.36 0 18.57L0 1.43L0 1.43Z" />
		<path id="Layer" class="shp1" d="M6.08 16.74L6.08 7.73L3.08 7.73L3.08 16.74L6.08 16.74L6.08 16.74ZM4.58 6.5C5.63 6.5 6.28 5.81 6.28 4.95C6.26 4.06 5.63 3.39 4.6 3.39C3.58 3.39 2.91 4.06 2.91 4.95C2.91 5.81 3.56 6.5 4.56 6.5L4.58 6.5L4.58 6.5ZM7.73 16.74L10.73 16.74L10.73 11.71C10.73 11.44 10.75 11.17 10.83 10.98C11.04 10.44 11.53 9.88 12.36 9.88C13.44 9.88 13.88 10.71 13.88 11.92L13.88 16.74L16.87 16.74L16.87 11.57C16.87 8.81 15.39 7.52 13.42 7.52C11.81 7.52 11.1 8.42 10.71 9.04L10.73 9.04L10.73 7.73L7.73 7.73C7.77 8.58 7.73 16.74 7.73 16.74L7.73 16.74Z" />
	</g>
</svg>